<?xml version="1.0" encoding="UTF-8" standalone="no"?>
<svg
   xmlns:dc="http://purl.org/dc/elements/1.1/"
   xmlns:cc="http://creativecommons.org/ns#"
   xmlns:rdf="http://www.w3.org/1999/02/22-rdf-syntax-ns#"
   xmlns:svg="http://www.w3.org/2000/svg"
   xmlns="http://www.w3.org/2000/svg"
   viewBox="0 0 266.66666 266.66666"
   height="266.66666"
   width="266.66666"
   xml:space="preserve"
   id="svg2"
   version="1.1"><metadata
     id="metadata8"><rdf:RDF><cc:Work
         rdf:about=""><dc:format>image/svg+xml</dc:format><dc:type
           rdf:resource="http://purl.org/dc/dcmitype/StillImage" /></cc:Work></rdf:RDF></metadata><defs
     id="defs6"><clipPath
       id="clipPath22"
       clipPathUnits="userSpaceOnUse"><path
         id="path20"
         d="M 0,200 H 200 V 0 H 0 Z" /></clipPath></defs><g
     transform="matrix(1.3333333,0,0,-1.3333333,0,266.66667)"
     id="g10"><text
       id="text14"
       style="font-variant:normal;font-weight:bold;font-stretch:expanded;font-size:48px;font-family:'Archivo Expanded';-inkscape-font-specification:ArchivoExpanded-Bold;writing-mode:lr-tb;fill:#319d52;fill-opacity:1;fill-rule:nonzero;stroke:none"
       transform="matrix(1,0,0,-1,1,49.3574)"><tspan
         id="tspan12"
         y="0"
         x="0 38.063999 52.175999 86.543999">Fixi</tspan></text>
<g
       id="g16"><g
         clip-path="url(#clipPath22)"
         id="g18"><text
           id="text26"
           style="font-variant:normal;font-weight:bold;font-stretch:expanded;font-size:48px;font-family:'Archivo Expanded';-inkscape-font-specification:ArchivoExpanded-Bold;writing-mode:lr-tb;fill:#373535;fill-opacity:1;fill-rule:nonzero;stroke:none"
           transform="matrix(1,0,0,-1,101.6543,49.3574)"><tspan
             id="tspan24"
             y="0"
             x="0 48.624001">GO</tspan></text>
<g
           transform="translate(117.2979,159.1553)"
           id="g28"><path
             id="path30"
             style="fill:#4083c4;fill-opacity:1;fill-rule:nonzero;stroke:none"
             d="M 0,0 V 0.029 H -0.957 C -0.632,0.028 -0.315,0.019 0,0" /></g><g
           transform="translate(116.3398,169.3042)"
           id="g32"><path
             id="path34"
             style="fill:#4083c4;fill-opacity:1;fill-rule:nonzero;stroke:none"
             d="m 0,0 c -0.014,0 -0.027,0.001 -0.042,0.001 -7.96,0 -15.09,-3.55 -19.9,-9.15 2.41,-3.14 4.16,-6.81 5.06,-10.79 2.45,5.77 8.17,9.82 14.84,9.82 h 0.003 l 0,10.119 z" /></g><g
           transform="translate(125.6582,156.1855)"
           id="g36"><path
             id="path38"
             style="fill:#4083c4;fill-opacity:1;fill-rule:nonzero;stroke:none"
             d="m 0,0 c 4.09,-2.91 6.76,-7.7 6.76,-13.11 0,-8.9 -7.221,-16.12 -16.12,-16.12 -6.67,0 -12.39,4.05 -14.84,9.83 -0.9,-3.98 -2.65,-7.64 -5.06,-10.79 4.799,-5.61 11.94,-9.16 19.9,-9.16 14.49,0 26.24,11.75 26.24,26.24 0,4.78 -1.28,9.26 -3.521,13.11 z" /></g><g
           transform="translate(72.9492,159.1855)"
           id="g40"><path
             id="path42"
             style="fill:#319d52;fill-opacity:1;fill-rule:nonzero;stroke:none"
             d="m 0,0 c 8.898,0 16.114,-7.215 16.114,-16.114 0,-8.898 -7.216,-16.114 -16.114,-16.114 -8.903,0 -16.118,7.216 -16.118,16.114 C -16.118,-7.215 -8.903,0 0,0 m 0,-42.347 c 14.486,0 26.233,11.743 26.233,26.233 0,5.242 -1.544,10.121 -4.193,14.219 0.021,0.205 0.034,0.413 0.034,0.624 v 2.935 c 0,3.241 -2.628,5.869 -5.87,5.869 -1.151,0 -2.222,-0.336 -3.128,-0.909 C 9.225,8.844 4.763,10.12 0,10.12 c -14.491,0 -26.237,-11.747 -26.237,-26.234 0,-14.49 11.746,-26.233 26.237,-26.233" /></g><g
           transform="translate(81.0889,112.2969)"
           id="g44"><path
             id="path46"
             style="fill:#319d52;fill-opacity:1;fill-rule:nonzero;stroke:none"
             d="m 0,0 c -2.389,-1.401 -5.171,-2.204 -8.14,-2.204 -2.971,0 -5.756,0.804 -8.145,2.206 -4.525,2.655 -9.588,4.259 -14.834,4.259 h -1.43 c 3.846,-9.717 13.328,-16.584 24.409,-16.584 11.082,0 20.559,6.867 24.405,16.584 H 14.836 C 9.589,4.261 4.525,2.656 0,0" /></g><g
           transform="translate(160.1973,164.2441)"
           id="g48"><path
             id="path50"
             style="fill:#4083c4;fill-opacity:1;fill-rule:nonzero;stroke:none"
             d="M 0,0 -10.075,8.337 V 5.06 h -33.782 -0.039 V -5.059 -5.06 h 0.04 0.957 32.824 v -3.277 z" /></g></g></g></g></svg>