<?xml version="1.0" encoding="UTF-8"?>
<svg version="1.1" xmlns="http://www.w3.org/2000/svg" width="881" height="320">
<path d="M0 0 C18.87844547 -0.61155528 40.08728818 3.26270583 56.22265625 13.47265625 C59.62743088 14.5184509 62.11184594 13.20563986 65.4609375 12.16015625 C73.45542129 11.34701282 80.80262017 11.09328097 87.6640625 15.671875 C93.50977579 20.51365057 97.35078623 26.59279485 98.4609375 34.16015625 C98.49111125 35.60520127 98.50069337 37.05074106 98.49609375 38.49609375 C98.50036487 49.22195353 99.84560981 56.43294937 105.39453125 65.5859375 C108.88145135 71.36575732 110.65140363 77.68284751 112.4609375 84.16015625 C112.780625 85.22363281 113.1003125 86.28710938 113.4296875 87.3828125 C120.78909199 116.51378859 114.75849137 147.23270249 100.37109375 173.03515625 C97.10431621 178.37957759 93.40428309 183.29959784 89.4609375 188.16015625 C88.43033203 189.44019531 88.43033203 189.44019531 87.37890625 190.74609375 C68.95291013 212.41971442 42.14667835 224.55799146 14.2734375 227.84765625 C12.67058145 227.97035044 11.06619569 228.07443858 9.4609375 228.16015625 C8.20410156 228.23943359 8.20410156 228.23943359 6.921875 228.3203125 C-20.94011269 229.22288393 -47.13828809 219.6918641 -68.5390625 202.16015625 C-69.38984375 201.474375 -70.240625 200.78859375 -71.1171875 200.08203125 C-92.023147 182.33168828 -104.59510578 156.00337684 -108.5390625 129.16015625 C-110.43836137 95.53601702 -104.19742205 66.85619875 -82.5390625 40.16015625 C-81.85199219 39.30679688 -81.16492188 38.4534375 -80.45703125 37.57421875 C-62.03103513 15.90059808 -35.22480335 3.76232104 -7.3515625 0.47265625 C-4.90224268 0.2851676 -2.45157195 0.15463762 0 0 Z M-41.5390625 62.16015625 C-42.28929687 62.81628906 -43.03953125 63.47242187 -43.8125 64.1484375 C-55.91324588 75.44384363 -64.06190557 91.81073956 -64.77734375 108.49609375 C-65.20981361 128.07022514 -60.77191337 145.15383053 -47.5390625 160.16015625 C-46.88292969 160.91039062 -46.22679687 161.660625 -45.55078125 162.43359375 C-33.94372035 174.86821475 -17.97384196 182.25159578 -1.015625 183.3984375 C18.3651359 183.77190044 34.7908413 178.19170767 49.4609375 165.16015625 C50.08613281 164.61746094 50.71132813 164.07476562 51.35546875 163.515625 C63.38451834 152.35549096 71.00492698 135.82691767 71.796875 119.43359375 C72.16771354 99.28605811 67.06153555 82.44463787 53.4609375 67.16015625 C52.85636719 66.46148437 52.25179687 65.7628125 51.62890625 65.04296875 C40.46395887 52.96132043 24.24024587 46.02438886 7.9375 44.921875 C-10.68830138 44.56295996 -27.33812273 49.63750936 -41.5390625 62.16015625 Z " fill="#307B3B" transform="translate(499.5390625,17.83984375)"/>
<path d="M0 0 C19.47 0 38.94 0 59 0 C66.94006999 17.0144357 66.94006999 17.0144357 68.8125 23.1875 C69.19019531 24.39792969 69.56789063 25.60835937 69.95703125 26.85546875 C72.61449621 36.75864894 73.36168825 46.52657288 73.3125 56.75 C73.30686035 57.98210205 73.3012207 59.2142041 73.29541016 60.48364258 C72.9432618 86.95927179 63.56289623 110.53630952 47 131 C46.46503906 131.67675781 45.93007813 132.35351562 45.37890625 133.05078125 C41.69111453 137.55808224 37.50701917 141.32563352 33 145 C32.13632812 145.71285156 31.27265625 146.42570313 30.3828125 147.16015625 C22.4666476 153.41371199 14.13635924 157.8120823 5 162 C4.13890625 162.41121094 3.2778125 162.82242188 2.390625 163.24609375 C-8.34795734 168.00439661 -21.29320457 170.52459714 -33 171 C-33.83402344 171.0515625 -34.66804687 171.103125 -35.52734375 171.15625 C-68.39993042 172.26276063 -96.04631776 158.87075335 -119.8203125 137.1640625 C-122 135 -122 135 -124 132 C-123.67888965 128.33934201 -122.61102378 126.09540239 -120.4375 123.1875 C-112.15814004 111.15562437 -107.2412694 97.88051803 -103 84 C-100.49265952 86.28006693 -99.00067659 88.60110669 -97.375 91.5625 C-87.22630671 108.8127603 -71.88265396 118.73383762 -53 124 C-35.06776469 127.69881616 -17.11038413 123.903313 -1.75195312 114.19775391 C13.52184789 103.75554825 23.878452 87.70552301 27.52734375 69.5703125 C30.00961176 50.81995748 26.88646633 32.71521121 16 17 C12.63768815 12.70599227 8.87468704 8.83414472 5 5 C3.35 3.35 1.7 1.7 0 0 Z " fill="#307B3B" transform="translate(727,75)"/>
<path d="M0 0 C3.84391521 1.9219576 6.73232415 4.15621275 9.9375 6.9375 C11.1001946 7.93367057 12.26295694 8.92976209 13.42578125 9.92578125 C14.0182666 10.4357666 14.61075195 10.94575195 15.22119141 11.47119141 C18.01120662 13.86908809 20.81697834 16.24823584 23.625 18.625 C24.15843018 19.07665527 24.69186035 19.52831055 25.24145508 19.99365234 C34.3468332 27.85841436 34.3468332 27.85841436 44 35 C43.15604608 39.73131416 40.19638503 41.76927487 36.625 44.6875 C35.99086182 45.21786865 35.35672363 45.7482373 34.70336914 46.29467773 C32.81047178 47.87340126 30.90732986 49.43876028 29 51 C28.03707031 51.79148438 27.07414063 52.58296875 26.08203125 53.3984375 C24.32566849 54.83569743 22.56526842 56.26803843 20.80078125 57.6953125 C18.70964604 59.41605138 16.65073692 61.15593543 14.60546875 62.9296875 C14.02676025 63.42911865 13.44805176 63.9285498 12.85180664 64.44311523 C11.73030458 65.41366721 10.61331472 66.38946686 9.50170898 67.37133789 C6.30206702 70.13331902 4.05359262 71.37856295 0 73 C0 68.38 0 63.76 0 59 C-19.41174126 59.03812502 -38.82328277 59.0973272 -58.23487091 59.18390274 C-67.24951954 59.22358677 -76.26408222 59.25603299 -85.27880859 59.27099609 C-93.14284069 59.28406807 -101.00668281 59.3111728 -108.87060785 59.35461307 C-113.02837248 59.37710414 -117.18590389 59.39291819 -121.34373474 59.39188385 C-125.27059158 59.39112984 -129.19693533 59.40937235 -133.12365913 59.44116783 C-134.55209061 59.44957086 -135.9805803 59.4514835 -137.40902519 59.44580269 C-156.36897759 59.38054165 -173.55642315 64.31783496 -188 77 C-189.01513672 77.87398437 -189.01513672 77.87398437 -190.05078125 78.765625 C-195.24504538 83.56653709 -198.72726565 89.06969087 -202.23828125 95.14453125 C-203.7096729 97.52942548 -205.00436153 99.10251343 -207 101 C-207.18997559 100.39752441 -207.37995117 99.79504883 -207.57568359 99.17431641 C-212.16633849 84.81932491 -217.07477845 69.5603199 -226.85546875 57.76171875 C-228 56 -228 56 -227.85546875 53.97265625 C-221.10147047 38.39836798 -197.57030368 26.81998564 -182.89794922 21.01757812 C-167.06648563 15.15679398 -150.93624738 13.84099794 -134.18701172 13.88647461 C-132.71757509 13.88675722 -131.24813833 13.88659731 -129.77870178 13.8860321 C-125.81866386 13.885747 -121.85865667 13.89159708 -117.89862585 13.89860606 C-113.74932355 13.90488763 -109.60002043 13.90544718 -105.45071411 13.90663147 C-97.60640364 13.90973069 -89.76210723 13.91792496 -81.91780293 13.92798096 C-72.98183005 13.93918601 -64.04585647 13.94466359 -55.1098783 13.94967639 C-36.7399107 13.96010884 -18.369957 13.97788396 0 14 C0 9.38 0 4.76 0 0 Z " fill="#307B3B" transform="translate(831,4)"/>
<path d="M0 0 C0.79472717 -0.00571014 1.58945435 -0.01142029 2.40826416 -0.01730347 C3.70267677 -0.01898026 3.70267677 -0.01898026 5.02323914 -0.02069092 C6.39713303 -0.02813828 6.39713303 -0.02813828 7.79878235 -0.03573608 C10.82762912 -0.05033599 13.85642351 -0.05715608 16.88529968 -0.06268311 C18.99273683 -0.0684363 21.10017396 -0.07419402 23.20761108 -0.07995605 C27.62678776 -0.09045983 32.04594627 -0.0963066 36.46513367 -0.09979248 C42.12101515 -0.10527613 47.77665577 -0.12930418 53.43246174 -0.15776443 C57.78626197 -0.17641008 62.14000439 -0.18159745 66.49384117 -0.18312836 C68.57859298 -0.186151 70.66334387 -0.19416641 72.74805641 -0.20731354 C75.66809419 -0.22441425 78.58754626 -0.22248387 81.50761414 -0.21600342 C82.36448318 -0.2252182 83.22135223 -0.23443298 84.10418701 -0.243927 C90.5386105 -0.19931186 95.44578244 0.82515874 100.33451843 5.32794189 C102.81740134 9.62523924 103.52913435 13.52581144 102.48295593 18.32794189 C101.1356991 22.35490738 99.84984979 25.07370336 95.95951843 27.14044189 C92.44627652 28.31152253 89.29586785 28.27273547 85.64237976 28.25396729 C84.5298156 28.25418633 84.5298156 28.25418633 83.39477539 28.25440979 C80.94367038 28.25371324 78.49264141 28.24593287 76.04154968 28.23809814 C74.34189902 28.23623305 72.64224783 28.23480958 70.94259644 28.23381042 C66.46931982 28.22999244 61.99607568 28.22016827 57.52281189 28.20910645 C52.15552186 28.1970783 46.78822097 28.19248666 41.42092133 28.18665314 C33.26709778 28.17695616 25.11334548 28.15779457 16.95951843 28.14044189 C16.95951843 42.66044189 16.95951843 57.18044189 16.95951843 72.14044189 C21.18635437 72.10563721 25.41319031 72.07083252 29.76811218 72.03497314 C33.15918463 72.01565162 36.55024132 71.99939338 39.94133759 71.98519135 C43.50960515 71.96941377 47.07765551 71.94836437 50.64579773 71.91412354 C54.74908942 71.87499805 58.85215457 71.86067872 62.95561218 71.84747314 C64.22158737 71.83198929 65.48756256 71.81650543 66.79190063 71.80055237 C74.69002737 71.79906169 82.27522138 71.91668197 88.45951843 77.32794189 C91.17402063 82.41763352 91.59327651 86.94119911 89.95951843 92.39044189 C88.80848689 95.87231232 86.54095598 97.54312654 83.37550354 99.28869629 C77.93020449 101.20841406 71.98009087 100.61916936 66.27592468 100.53106689 C64.85104164 100.52359634 63.42614825 100.51790726 62.00125122 100.51391602 C58.2708393 100.49872342 54.54106121 100.45949847 50.81089783 100.4151001 C46.99659293 100.37400842 43.18218452 100.35587552 39.36772156 100.33575439 C31.89803315 100.29299642 24.42886497 100.22482453 16.95951843 100.14044189 C16.96395966 100.88466904 16.96840088 101.62889618 16.97297668 102.39567566 C17.01320873 109.44189277 17.04358131 116.48806945 17.06314278 123.53436947 C17.07353791 127.15612158 17.08761808 130.77777802 17.11039734 134.3994751 C17.13227935 137.9008076 17.1441191 141.40204863 17.14927292 144.90344429 C17.15471503 146.87577967 17.17030292 148.84807874 17.18611145 150.82035828 C17.18725467 160.0576293 17.15119599 168.71042883 10.95951843 176.14044189 C5.76393561 179.90723944 1.32478939 180.57198569 -5.04048157 180.14044189 C-10.85935468 178.40498851 -15.11418434 175.4856907 -18.04048157 170.14044189 C-20.20384466 162.45665728 -20.32439003 155.17648067 -20.29927063 147.22637939 C-20.3019856 145.84065569 -20.30554936 144.45493343 -20.30989075 143.06921387 C-20.31895689 139.32955592 -20.3154945 135.59000915 -20.30913258 131.85034943 C-20.30404252 127.92279273 -20.30877234 123.99524508 -20.31190491 120.06768799 C-20.31553583 113.4740835 -20.31076845 106.88052393 -20.30122375 100.28692627 C-20.29034088 92.68143044 -20.29386708 85.07604187 -20.30487657 77.47054863 C-20.3139744 70.92165145 -20.31522254 64.37278642 -20.30999923 57.82388496 C-20.30689323 53.92082081 -20.3064323 50.01780695 -20.3130722 46.11474609 C-20.31888148 42.44403859 -20.31478378 38.77346837 -20.30328369 35.10277557 C-20.29941026 33.12576991 -20.3052921 31.14875252 -20.3115387 29.17175293 C-20.2688321 20.12878412 -20.2143119 11.34324395 -14.04048157 4.14044189 C-9.46535074 1.37630035 -5.31538053 0.02298901 0 0 Z " fill="#07213E" transform="translate(25.040481567382813,47.85955810546875)"/>
<path d="M0 0 C10.24798268 4.33568498 17.55370983 18.83027442 23.8515625 27.6328125 C26.84036602 31.80145601 29.90449263 35.9101529 33 40 C36.16567827 36.10547953 39.16484967 32.11312096 42.125 28.0625 C42.60219482 27.41297363 43.07938965 26.76344727 43.57104492 26.09423828 C45.99667678 22.78295665 48.39171175 19.45532026 50.73046875 16.08203125 C51.16536621 15.45868896 51.60026367 14.83534668 52.04833984 14.19311523 C52.86453314 13.01926597 53.67397592 11.84068059 54.47509766 10.65649414 C57.57022461 6.21563095 61.10278866 2.44860567 66 0 C71.58393133 -0.5099099 76.44052088 -0.73870063 81.5625 1.6875 C85.39344497 5.32198626 86.82719594 7.49413606 87.4375 12.8125 C87.0879977 20.98306588 81.30564758 27.62097007 76.5625 33.875 C75.32255143 35.54009266 74.08297799 37.20546473 72.84375 38.87109375 C70.92153942 41.44008896 68.99547854 44.00599025 67.0625 46.56689453 C65.21801619 49.01565467 63.38934703 51.4755688 61.5625 53.9375 C60.98894775 54.68821777 60.41539551 55.43893555 59.82446289 56.21240234 C59.04703735 57.26548584 59.04703735 57.26548584 58.25390625 58.33984375 C57.79314697 58.95206787 57.3323877 59.56429199 56.85766602 60.19506836 C55.82155683 61.97078339 55.82155683 61.97078339 56.21044922 63.99511719 C57.05768309 66.14647296 58.05804631 67.84053312 59.37890625 69.73828125 C59.88043213 70.46490967 60.38195801 71.19153809 60.89868164 71.94018555 C61.4477417 72.72304932 61.99680176 73.50591309 62.5625 74.3125 C63.13025146 75.13339111 63.69800293 75.95428223 64.28295898 76.80004883 C67.59283937 81.57811129 70.93616987 86.33248203 74.28125 91.0859375 C74.99337646 92.10131592 75.70550293 93.11669434 76.43920898 94.1628418 C77.82670665 96.13935192 79.2192418 98.11233789 80.61743164 100.08129883 C91.48223191 115.54625254 91.48223191 115.54625254 90 125 C88.25881726 129.21549505 86.18530907 131.21901742 82 133 C76.84892862 134.13690879 71.59478951 134.84884761 66.74584961 132.29736328 C57.17757541 125.18705576 50.90150429 113.75250483 44.5 103.9375 C43.00326529 101.65993342 41.50422227 99.38390275 40.0045166 97.10829163 C39.07963732 95.70307652 38.15694925 94.29641621 37.23669434 92.88816833 C35.31571858 89.79024339 35.31571858 89.79024339 33 87 C31.88250619 88.62544554 30.76504252 90.25091181 29.64770508 91.87646484 C28.66236098 93.30942304 27.67650921 94.74203228 26.69018555 96.17431641 C24.14887057 99.86616496 21.61504216 103.56257123 19.1015625 107.2734375 C2.54815326 131.66187774 2.54815326 131.66187774 -4.4296875 133.71484375 C-10.0929491 134.23050815 -13.97790672 134.05264494 -19 131 C-22.47174082 127.89759331 -24.32297563 125.44361643 -24.6875 120.8125 C-23.82734827 108.69036172 -12.63483756 97.17297223 -5.88867188 87.66796875 C-2.79457971 83.2972036 0.26725658 78.90490253 3.3125 74.5 C3.86945557 73.70529297 4.42641113 72.91058594 5.00024414 72.09179688 C5.51192139 71.34994141 6.02359863 70.60808594 6.55078125 69.84375 C7.00106689 69.19599609 7.45135254 68.54824219 7.9152832 67.88085938 C9.09783268 65.8303617 9.77294445 64.36304895 10 62 C9.07944246 60.01101738 9.07944246 60.01101738 7.52734375 58.12109375 C6.96378174 57.37375977 6.40021973 56.62642578 5.81958008 55.85644531 C5.19849365 55.05819336 4.57740723 54.25994141 3.9375 53.4375 C2.64832879 51.73315514 1.35926962 50.02872552 0.0703125 48.32421875 C-0.59967773 47.44813965 -1.26966797 46.57206055 -1.95996094 45.66943359 C-5.23351383 41.38592147 -8.46591501 37.07266008 -11.6875 32.75 C-12.27474854 31.97712646 -12.86199707 31.20425293 -13.46704102 30.40795898 C-18.58533735 23.55337847 -21.97359749 17.76237737 -21 9 C-16.32632747 -0.17424609 -9.54307151 -1.10663176 0 0 Z " fill="#07213E" transform="translate(227,94)"/>
<path d="M0 0 C26.54346368 -1.01655818 47.44732782 5.28771439 70.61645508 17.73168945 C88.36389789 27.11762717 105.6052855 29.02221028 125 24 C131.60778007 21.85552256 137.61228631 18.69037667 143.69311523 15.38134766 C165.07437509 3.78596911 185.73766875 -0.67119154 210 0 C200.1706981 27.30126517 179.49993979 49.40340305 153.4375 61.875 C137.73682762 69.12625206 122.5463088 72.39572392 105.25 72.3125 C103.40293457 72.30404053 103.40293457 72.30404053 101.51855469 72.29541016 C70.7640052 71.88615989 44.02540807 58.67412739 22.60424805 37.02416992 C13.26680703 27.24229235 3.02223614 13.44858582 0 0 Z " fill="#307B3B" transform="translate(398,246)"/>
<path d="M0 0 C5.26615008 2.58688074 8.12284036 5.50998989 10.06095886 11.01176453 C11.33565323 15.6536471 11.28764556 20.21358595 11.2746582 24.99926758 C11.27976913 25.97909103 11.28488007 26.95891449 11.29014587 27.96842957 C11.30399732 31.19385968 11.30308821 34.419075 11.30078125 37.64453125 C11.30467103 39.89743631 11.30900629 42.15034063 11.31376648 44.40324402 C11.32121945 49.12147398 11.32094438 53.83962911 11.31567383 58.55786133 C11.309885 64.58666899 11.32680075 70.61516886 11.3500185 76.64392567 C11.36479391 81.29637933 11.36562227 85.94875956 11.36250877 90.60123253 C11.36302022 92.82305192 11.36822456 95.04487562 11.37832069 97.26667213 C11.39073951 100.38216411 11.3838603 103.49706539 11.37231445 106.61254883 C11.38378006 107.97278671 11.38378006 107.97278671 11.39547729 109.36050415 C11.33340229 116.98788683 10.46801866 124.8925863 4.9375 130.5625 C0.65232556 133.75146702 -3.74955191 134.35510277 -9 134 C-14.74812672 132.39806304 -17.6822154 129.92927997 -21 125 C-23.09936403 119.2404903 -23.29099585 113.98531518 -23.2746582 107.89306641 C-23.27976913 106.90188309 -23.28488007 105.91069977 -23.29014587 104.88948059 C-23.30399742 101.62677907 -23.30308836 98.36428985 -23.30078125 95.1015625 C-23.30467071 92.82384157 -23.3090059 90.54612137 -23.31376648 88.2684021 C-23.32121923 83.49889778 -23.3209443 78.72946749 -23.31567383 73.95996094 C-23.3098816 67.86155402 -23.3268091 61.76345106 -23.3500185 55.66509438 C-23.36478271 50.96206911 -23.36562385 46.25911658 -23.36250877 41.55607224 C-23.36302067 39.30830661 -23.36823353 37.06053678 -23.37832069 34.81279373 C-23.39071921 31.66357175 -23.38387257 28.51493594 -23.37231445 25.36572266 C-23.37995819 24.44595139 -23.38760193 23.52618011 -23.39547729 22.57853699 C-23.34500365 16.32600095 -22.89966304 9.25028495 -18.54808521 4.37252235 C-12.66435362 -0.64152662 -7.51024165 -0.71666358 0 0 Z " fill="#07213E" transform="translate(170,94)"/>
<path d="M0 0 C4.93461319 2.29107041 7.35281968 5.29390165 10 10 C10.89127904 12.85545592 11.12876859 15.43006814 11.14044189 18.41339111 C11.14615204 19.29081467 11.15186218 20.16823822 11.15774536 21.07225037 C11.15886322 22.02712845 11.15998108 22.98200653 11.16113281 23.96582031 C11.16858017 25.48360832 11.16858017 25.48360832 11.17617798 27.03205872 C11.19078692 30.38075439 11.1975998 33.72940268 11.203125 37.078125 C11.20887784 39.40736899 11.21463556 41.73661297 11.22039795 44.06585693 C11.23090457 48.95162171 11.23674935 53.83737005 11.24023438 58.72314453 C11.24571595 64.97529106 11.26973845 71.22721947 11.29820633 77.47929764 C11.31685595 82.29207997 11.32203957 87.10481002 11.32357025 91.91762543 C11.32659244 94.2220453 11.33460627 96.52646435 11.34775543 98.83084869 C11.36486285 102.05960037 11.3629239 105.28782261 11.35644531 108.51660156 C11.37026749 109.9367733 11.37026749 109.9367733 11.3843689 111.38563538 C11.34317462 117.95925047 10.4563914 123.56626455 6.52734375 129.05859375 C1.73256116 133.21721354 -2.66205782 134.42865309 -9 134 C-13.67571555 132.69693173 -17.0860219 130.84993584 -20.01202393 126.86730957 C-25.16914025 117.12017811 -23.29002866 103.21085926 -23.265625 92.53125 C-23.26697472 90.44339961 -23.2689178 88.35554952 -23.27142334 86.2677002 C-23.27436017 81.90711453 -23.27012351 77.5466112 -23.26074219 73.18603516 C-23.2493486 67.62158909 -23.25591581 62.05733603 -23.26788712 56.49289703 C-23.27514473 52.18612233 -23.27279992 47.87939271 -23.26763153 43.57261658 C-23.26630581 41.52188595 -23.26790458 39.47115111 -23.27259064 37.42042542 C-23.32057918 10.5223978 -23.32057918 10.5223978 -18.625 4.4375 C-12.97847241 -0.80570419 -7.47613102 -0.80172987 0 0 Z " fill="#07213E" transform="translate(362,94)"/>
<path d="M0 0 C3.79376014 1.37371349 5.97299581 3.38049339 8.1171875 6.76171875 C10.56311937 12.09731349 10.38576052 17.37211542 9 23 C6.70147315 27.51496346 4.50365341 29.76731063 0 32 C-5.61342369 32.78872156 -11.85991818 33.03922106 -17.0625 30.5 C-21.75794025 26.50388064 -23.68898542 22.53254727 -24.4375 16.4375 C-23.73318199 10.90357278 -22.22153301 6.7700941 -17.9375 3.125 C-12.25891316 -0.98291388 -6.87185957 -0.70438608 0 0 Z " fill="#07213E" transform="translate(171,47)"/>
<path d="M0 0 C4.0262268 1.45517186 6.83004827 4.34534446 9 8 C11.02414421 13.15236708 10.43676434 18.62074419 8.8125 23.75 C6.56810494 27.77443253 4.09435378 29.95282311 0 32 C-7.64849205 32.65252869 -13.86876951 32.93164191 -20 28 C-23.18431017 24.17882779 -24.13189542 19.91530257 -24 15 C-23.1560034 10.09170908 -21.78862213 6.27534161 -17.9375 3 C-12.1936688 -0.91069358 -6.83559941 -0.60705445 0 0 Z " fill="#07213E" transform="translate(363,47)"/>
</svg>
